<svg width="104" height="221" viewBox="0 0 104 221" fill="none" xmlns="http://www.w3.org/2000/svg">
<path d="M41.7917 83.4561C39.3823 78.4894 35.6958 74.2705 31.114 71.2664C29.4024 69.7177 26.7692 69.8646 25.2419 71.6136C25.0708 71.8139 24.9128 72.0275 24.768 72.2678C23.4909 74.137 21.8319 75.699 19.8965 76.8606C16.763 79.1837 12.3787 78.5028 10.0878 75.3252C9.92979 75.1116 9.79813 74.8846 9.66647 74.6577C8.60002 73.1223 8.07337 71.2664 5.80881 70.9193C2.70161 70.4253 0.371217 67.7952 0.213224 64.6042C-0.589907 61.1329 0.924195 57.5281 3.93923 55.699C6.55928 54.6843 8.00755 51.8538 7.29658 49.1035C7.27025 45.2851 10.2195 42.1342 13.9718 41.9473C17.6583 41.7604 20.9761 44.1903 21.9768 47.7951C22.3586 50.2918 24.2413 52.2811 26.677 52.7617C31.7328 54.3238 34.5899 59.7444 33.0494 64.8712C32.9704 65.1383 32.8783 65.4053 32.7729 65.659C31.6143 67.8486 32.4306 70.5722 34.5899 71.7337C34.7742 71.8406 34.9717 71.9207 35.1692 72.0008C37.8156 73.8165 40.1723 76.0462 42.134 78.5962C46.2155 83.416 46.1628 83.4561 53.2199 83.7097C53.4964 67.221 49.7177 51.4934 45.4519 35.8191C45.0174 35.8591 44.5961 35.966 44.2011 36.1662C38.9742 42.0941 33.9316 41.3999 30.4162 34.1502C29.9949 32.5214 28.5598 31.3865 26.9009 31.3598C23.8332 31.5734 21.1736 29.237 20.9498 26.1261C20.8971 25.4452 20.9761 24.751 21.1736 24.0834C21.4369 19.4105 24.2018 15.2716 28.3755 13.2823C30.6269 12.3344 31.6012 11.6134 30.8507 8.79631C29.6658 5.37841 31.43 1.64008 34.8005 0.425128C35.1165 0.318319 35.4457 0.224862 35.7616 0.158106C39.7905 -0.656315 43.7666 1.74689 44.9779 5.72554C45.4124 7.34103 45.5704 9.02328 45.8469 10.5987C47.4663 11.293 48.3879 9.90446 49.6255 9.69084C56.5509 8.48924 59.3948 11.066 58.0386 18.0487C57.512 20.7857 56.5246 22.9085 58.0913 25.8057C59.6844 28.7563 57.1039 32.775 53.3515 35.0314C51.7848 35.9793 49.1779 35.6455 48.7039 37.715C48.7039 39.3972 49.0594 41.0527 49.7045 42.5881C50.8895 47.755 51.8901 52.9753 53.312 58.0755C55.3791 65.472 55.05 73.1356 56.2744 80.6123C56.0111 81.934 56.5246 83.2959 57.6042 84.0969C60.1584 85.4053 62.2386 84.2171 62.3703 80.9995C63.1603 72.3078 64.4242 63.6696 66.1358 55.1115C66.3728 52.2944 67.2286 49.5574 68.6637 47.1275C63.2656 42.6282 62.9628 40.8925 66.4386 34.7243C66.9126 33.9499 66.9653 32.9886 66.5571 32.1742C64.5559 26.4599 67.0443 22.1742 73.2191 21.3064C75.9314 20.9459 78.5909 20.2116 81.1188 19.1168C86.5301 16.807 90.7169 19.8911 90.9144 25.9659C90.73 27.8084 91.1513 29.6508 92.1256 31.2129C94.1269 34.0567 93.4686 38.0087 90.6642 40.0381C90.4535 40.1849 90.2429 40.3184 90.0322 40.4386C88.2548 41.3465 86.8987 42.9353 86.2799 44.8445C84.5025 49.6643 81.4874 50.6122 76.9715 48.2891C72.495 45.9793 71.9552 45.9927 70.3094 50.719C68.2687 57.6216 66.8073 64.671 65.9251 71.8272C65.5038 74.2571 65.4512 76.7404 65.1747 79.1971C64.6085 84.1637 65.1088 84.6844 70.2436 84.4441C71.7445 84.3773 73.2455 84.3106 74.7332 84.2171C76.3 83.8833 77.8273 84.9114 78.1433 86.4868C78.2223 86.874 78.2223 87.2612 78.1433 87.6483C77.9063 91.0529 78.1169 94.4841 78.7489 97.8353C79.078 99.611 77.9458 101.333 76.1947 101.707C74.7727 102.174 73.285 102.388 71.784 102.321C65.3722 102.588 63.8712 103.683 63.8186 109.798C63.7659 116.807 64.332 123.83 64.7534 130.839C64.7007 132.989 66.3596 134.778 68.4793 134.858C72.732 135.419 76.9451 136.287 81.0661 137.475C88.3996 140.092 94.4297 145.539 97.8529 152.628C100.631 158.45 102.606 164.631 103.685 171C105.002 178.183 101.921 184.324 99.3407 190.626C95.6936 198.97 90.4799 206.527 84.0022 212.869C79.5652 217.448 73.4956 218.517 67.6894 219.918C57.1829 222.335 46.176 220.666 36.8149 215.272C30.3241 212.322 24.4783 208.089 19.6069 202.842C11.0226 192.629 9.7323 180.893 12.3787 168.57C14.7617 156.861 21.7398 146.647 31.7065 140.265C32.8124 139.544 33.8657 138.757 34.9585 138.022C37.7234 136.153 41.6469 135.152 43.0162 132.281C44.2669 129.638 43.635 125.953 43.4243 122.749C43.0556 117.021 44.4249 111.4 44.1748 105.686C44.0168 102.134 43.8193 101.72 40.5541 101.467C40.0011 101.427 39.4218 101.534 38.8688 101.507C34.4187 101.267 34.129 100.906 34.3002 96.4468C34.4187 93.4294 35.551 90.4921 34.761 87.3947C34.4187 86.2198 35.077 84.9781 36.2488 84.6176C36.4199 84.5642 36.5911 84.5375 36.7623 84.5242C38.2105 84.1904 39.672 83.91 41.8049 83.4561H41.7917ZM50.139 167.115C47.5453 175.032 46.4657 183.39 46.9265 191.721C47.0055 193.363 47.9139 195.753 45.5967 195.913C43.1478 196.087 43.9114 193.443 43.8851 191.961C43.8324 181.347 45.0701 170.773 47.5716 160.466C48.1641 157.822 47.6769 156.58 45.0174 156.14C38.7108 155.098 32.4438 153.83 26.9404 158.783C25.6106 159.865 24.0043 160.546 22.3191 160.746C19.304 161.293 16.9078 163.617 16.2363 166.661C14.6301 172.321 14.1298 178.249 14.7749 184.111C14.9724 189.678 17.0263 195.005 20.6075 199.224C31.8118 212.455 46.018 219.091 63.2788 217.462C71.4022 216.954 79.0649 213.456 84.8316 207.649C90.9407 201.4 94.4034 193.777 98.4059 186.273C102.751 178.129 101.21 170.132 99.0773 161.988C98.8798 160.212 97.2999 158.944 95.562 159.144C95.3382 159.171 95.1143 159.224 94.9037 159.291C93.0999 159.905 91.1382 159.825 89.4003 159.077C86.6749 157.715 83.4887 157.755 80.8028 159.171C77.3928 161.013 73.2323 160.599 70.2436 158.116C69.0718 156.928 67.4261 156.38 65.7935 156.634C66.5834 159.224 67.1891 161.747 68.0975 164.164C70.5728 170.759 71.1389 177.809 72.9822 184.551C73.3113 185.406 72.9163 186.367 72.0737 186.701C71.9947 186.727 71.9289 186.754 71.8499 186.767C70.9941 186.994 70.1119 186.474 69.8881 185.606C69.8618 185.512 69.8486 185.419 69.8355 185.326C69.4537 184.257 69.2035 183.149 69.0982 182.014C68.4267 173.43 65.3195 165.446 63.2261 157.208C62.3571 153.79 60.6587 153.176 56.7484 153.803C53.6148 154.311 53.0487 156.233 53.1672 159.077C53.4569 165.713 54.576 172.295 56.5114 178.637C57.2619 182.362 58.3941 185.98 59.8819 189.464C60.527 190.239 60.4217 191.4 59.6449 192.055C59.5001 192.175 59.3421 192.268 59.1709 192.335C58.1045 192.655 56.9854 192.028 56.6694 190.946C56.6431 190.866 56.6299 190.786 56.6167 190.706C56.0374 189.104 55.5898 187.462 55.2474 185.806C54.0098 179.518 51.7189 173.51 50.1653 167.115H50.139ZM20.41 157.462C22.5297 157.822 24.7021 157.195 26.3216 155.766C31.193 151.961 36.6964 151.894 42.3842 152.628C49.586 153.563 49.7704 153.403 50.0863 145.859C50.0995 145.486 50.0337 145.098 50.0863 144.725C51.1528 136.06 50.534 127.288 51.7453 118.61C52.2324 115.085 53.1277 111.253 51.8374 107.875C49.4939 101.707 48.2036 95.1384 44.9516 89.3306C44.2538 88.0756 44.0563 86.1664 41.9892 86.5536C40.0406 86.6203 38.3817 88.0222 37.9472 89.9447C37.6312 91.8006 37.5654 93.7098 37.3942 95.6056C37.0782 96.8473 37.8024 98.1157 39.0268 98.4361C39.3297 98.5162 39.6456 98.5295 39.9616 98.4895C42.3974 98.7031 44.7409 99.4908 46.808 100.813C47.9798 101.347 48.5064 102.735 47.9929 103.937C47.9666 103.99 47.9534 104.03 47.9271 104.07C46.1233 112.575 45.9127 121.36 47.3346 129.945C47.9139 134.818 47.8613 135.352 43.3058 136.767C42.608 137.034 41.9365 137.381 41.3177 137.782C36.5384 140.412 32.0488 143.536 27.9147 147.101C24.5836 149.851 22.0031 153.416 20.4232 157.462H20.41ZM32.7334 15.6588C27.6645 15.9392 23.7542 20.2917 23.9517 25.4319C23.9648 26.5934 24.61 27.6615 25.6369 28.1956C26.8614 28.7697 28.3096 28.5026 29.2708 27.5414C29.7974 26.994 30.2451 26.3798 30.6005 25.7123C31.7328 23.9365 33.3786 22.5347 35.1823 24.1101C37.2362 25.9125 34.7479 26.8204 33.7999 28.0487C32.0356 30.6121 32.6413 34.1368 35.1692 35.9259C35.2087 35.9526 35.235 35.9793 35.2745 35.9927C37.8682 37.8752 40.2249 37.1142 42.1735 33.8698C42.7528 32.6816 43.0293 31.3598 42.9635 30.038C42.845 29.2637 43.319 28.516 44.0694 28.3024C44.8199 28.1155 45.5967 28.4759 45.9522 29.1702C46.334 29.8111 46.5578 30.5587 46.887 31.2396C47.6638 32.9352 49.6519 33.6695 51.3108 32.8818C51.4293 32.8284 51.5478 32.7617 51.6663 32.6949C54.0625 31.9339 55.7346 29.731 55.8267 27.1809C55.7872 25.4452 54.3653 24.0701 52.6537 24.1101C52.5747 24.1101 52.5089 24.1101 52.4299 24.1235C51.4951 24.03 50.5998 23.7229 49.8098 23.2289C49.191 22.9619 48.9146 22.2276 49.1779 21.6001C49.2964 21.3064 49.5334 21.0794 49.823 20.9592C50.5208 20.7323 51.2318 20.5453 51.9428 20.4118C54.6155 19.4238 55.9847 16.4198 55.0105 13.7095C54.9841 13.6294 54.9578 13.5627 54.9315 13.4959C53.9045 11.5333 51.087 11.2129 48.4669 12.8684C47.6769 13.3491 46.9791 14.0033 46.4393 14.7643C45.544 16.0727 44.6093 17.568 42.9372 16.4999C41.7522 15.4585 41.5021 13.6828 42.371 12.3611C43.0557 10.799 43.3453 9.07669 43.2268 7.36774C43.0688 5.2182 41.5942 3.40244 39.5403 2.82834C37.9999 2.00057 36.1171 2.21419 34.8005 3.37574C33.3259 4.92448 32.9968 7.26093 34.0106 9.17015C34.3265 10.4519 34.9585 11.6401 35.8406 12.6147C36.6701 13.309 37.9867 13.8831 37.3021 15.2716C36.5121 16.8738 35.0902 16.1929 33.8394 15.8991C33.4707 15.819 33.1021 15.7523 32.7334 15.6989V15.6588ZM95.6542 155.432C93.2316 148.236 84.8448 140.599 78.0643 139.745C74.0091 139.237 70.1514 137.488 65.8988 137.969C64.1082 138.169 61.6067 137.301 61.8436 135.072C62.3308 130.332 60.2637 125.659 61.8568 120.919C62.5283 119.651 62.0543 118.076 60.8035 117.395C60.6587 117.315 60.5139 117.248 60.3559 117.208C59.5922 121.093 57.6173 124.604 58.1703 128.463C58.8155 132.575 59.7107 136.647 60.843 140.652C62.4493 146.634 63.8976 152.308 70.8229 155.179C74.4304 156.674 77.2348 157.689 80.658 156.006C83.199 154.698 86.1614 154.564 88.8078 155.633C90.9934 156.62 93.5081 156.554 95.641 155.432H95.6542ZM30.2846 62.5882C30.9692 59.237 28.8494 55.966 25.5448 55.2718C25.3604 55.2317 25.1761 55.205 24.9918 55.1783C21.9768 54.9246 19.6464 52.3745 19.62 49.3038C19.5674 47.3412 18.3298 45.6055 16.4997 44.9646C14.6564 44.3772 12.642 44.978 11.3912 46.4867C10.0746 47.942 9.86397 50.0915 10.8646 51.7737C11.4044 52.5348 12.0364 53.2157 12.7605 53.7898C13.3661 54.3238 13.4451 55.2584 12.9185 55.8726C12.6815 56.1529 12.3392 56.3398 11.9705 56.3799C10.9304 56.727 9.7323 56.5268 8.63952 56.7804C5.33483 57.7951 3.12293 60.9326 3.21509 64.4306C3.08343 66.3399 4.50537 68.0088 6.40129 68.1423C7.07276 68.1957 7.73106 68.0355 8.32353 67.7017C9.16616 67.3412 9.79813 66.4867 10.6276 66.1263C12.0364 65.5121 12.7605 66.2998 12.7473 67.7017C12.642 68.4494 12.4708 69.1837 12.247 69.8913C11.615 73.5228 14.0771 75.8459 17.395 74.5375C19.8702 73.5629 22.6746 72.0408 22.4112 69.0502C22.0558 64.9914 24.5836 64.8846 26.8219 65.3652C29.6394 65.9794 30.1002 64.711 30.2714 62.5481L30.2846 62.5882ZM87.7413 25.3384C87.3068 23.803 87.2278 21.9072 85.2134 21.3731C83.6993 20.9592 82.1194 21.7203 81.4611 23.1622C81.0135 23.99 80.4868 24.7777 79.9207 25.512C78.6436 27.0474 77.1426 27.8217 76.1025 25.4052C75.9445 24.3371 74.9702 23.5894 73.9169 23.7496C73.6536 23.7897 73.3903 23.8831 73.1665 24.03C70.9151 24.4706 69.085 26.1128 68.4004 28.3291C67.9922 30.2383 69.401 30.8124 70.7308 31.6669C73.5351 33.4559 73.4561 33.99 70.5596 35.6989C69.6906 36.006 68.8743 36.4866 68.1897 37.1008C67.0443 38.3825 66.8731 40.265 67.7421 41.747C68.6242 42.9219 70.2831 43.1355 71.4417 42.241C71.5471 42.1609 71.6392 42.0808 71.7182 41.9873C72.5082 41.52 73.1138 40.719 73.8774 40.2116C75.8919 38.8632 76.616 39.2637 77.011 41.8939C77.09 42.4413 76.9188 43.0421 76.9978 43.5895C77.3533 45.3385 78.9464 46.5401 80.6975 46.3932C82.0668 46.3665 83.2254 45.3518 83.4492 43.99C83.9495 42.7483 83.8968 41.3465 83.3044 40.1449C82.2379 37.6749 83.4492 36.9539 85.6348 37.5414C86.7407 38.2891 88.2022 38.1288 89.1369 37.1809C91.1645 34.7643 90.493 32.7617 87.162 31.5467C84.226 30.4786 84.0417 29.8511 86.3062 27.6215C87.1225 27.1275 87.6492 26.2864 87.7677 25.3384H87.7413ZM63.8581 100.225C67.4129 99.7312 70.4674 97.6217 74.0091 97.5416C74.7727 97.4081 75.3521 96.7672 75.4047 95.9795C75.8655 93.7632 75.7734 91.4801 75.1282 89.3039C74.4568 87.1544 72.5477 87.408 70.9414 87.5148C68.8217 87.6617 66.5044 86.5669 64.6349 88.4361C64.5295 88.5963 64.4769 88.7832 64.49 88.9701C64.569 92.655 62.7258 96.2465 63.8449 100.225H63.8581ZM57.3145 117.635C59.5659 108.743 60.9484 99.6377 61.4355 90.4654C61.7778 89.157 61.001 87.8086 59.6976 87.4748C59.3026 87.368 58.8945 87.368 58.4995 87.4748C57.117 87.2745 55.8268 88.2492 55.6293 89.651C55.5766 90.0249 55.6029 90.3987 55.7083 90.7592C55.8531 95.8593 55.7083 100.959 55.2738 106.046C55.0368 110.025 55.7214 113.99 57.3013 117.635H57.3145ZM61.396 149.851C59.4474 145.219 57.749 140.492 56.2744 135.686C54.26 140.532 53.233 145.753 53.2989 151.013C56.3402 151.921 58.4468 150.359 61.4092 149.851H61.396ZM47.124 87.1944C49.0462 91.9474 50.7051 96.0729 52.3772 100.198C53.0619 97.5683 53.4042 94.8446 53.3779 92.121C53.4042 87.2612 53.3515 87.2612 47.124 87.181V87.1944Z" fill="#0B8F45"/>
<path d="M45.0353 17.6836C45.0077 18.7034 44.2073 19.5276 43.2 19.5556C42.1375 19.6533 41.1991 18.8431 41.1025 17.7674C41.1025 17.6138 41.1025 17.4601 41.1163 17.3064C41.1853 16.3844 41.9857 15.6859 42.8964 15.7558C42.993 15.7558 43.1034 15.7837 43.2 15.8117C44.1797 15.7837 45.0077 16.566 45.0353 17.5719C45.0353 17.6138 45.0353 17.6557 45.0353 17.6976V17.6836Z" fill="#0B8F45"/>
<path d="M15.7133 61.8423C14.568 61.5769 13.7952 60.4873 13.9056 59.3138C13.6987 58.1124 14.499 56.9669 15.6995 56.7713C15.6995 56.7713 15.7133 56.7713 15.7271 56.7713C16.8724 56.5897 17.935 57.372 18.1282 58.5175C18.1696 58.769 18.1696 59.0204 18.1144 59.2719C18.3627 60.4314 17.6314 61.5769 16.4861 61.8283C16.2377 61.8842 15.9755 61.8982 15.7133 61.8563V61.8423Z" fill="#0B8F45"/>
<path d="M85.1362 28.511C84.9844 29.2933 84.322 29.88 83.5217 29.908C82.5696 29.8521 81.8382 29.0279 81.8796 28.064C81.8796 28.0221 81.8796 27.9801 81.8796 27.9243C81.8796 27.2398 82.404 26.681 83.0801 26.667C83.2043 26.667 83.3285 26.681 83.4389 26.7089C84.2668 26.5971 85.0258 27.1839 85.1362 28.0221C85.15 28.1757 85.15 28.3434 85.1362 28.497V28.511Z" fill="#0B8F45"/>
</svg>
