<svg width="36" height="39" viewBox="0 0 36 39" fill="none" xmlns="http://www.w3.org/2000/svg">
<path d="M24 30.5C17.4429 35.0862 9.32575 34.1105 3.559 25.8589C-2.27723 17.503 -0.565623 8.58616 6.00013 4M9 8.5C4.23201 11.8354 3.04659 16.9124 7.059 22.6538C11.0367 28.343 16.732 29.8267 21.5 26.5" fill="#FAA41A"/>
<path d="M7.22388 3.30157C13.7809 -1.28459 22.8566 -0.528912 28.6234 7.72269C34.4596 16.0785 32.2015 25.2074 25.6445 29.7936M22.6742 25.5201C27.4422 22.1847 29.1532 16.6605 25.1407 10.9191C21.1631 5.22984 14.9447 4.19622 10.1767 7.5316" fill="#FF8A00"/>
<path d="M23.8641 27.2745C24.9671 28.864 26.5999 31.2179 27.7463 32.8682C28.4845 33.9365 29.9609 34.1971 31.0205 33.4501L31.0465 33.4328C32.0974 32.6945 32.3579 31.2526 31.6284 30.1929L27.7723 24.5645C26.9386 23.3484 25.2885 23.1573 24.2723 24.2083C24.255 24.2257 24.1421 24.3213 24.1247 24.3386L23.8641 27.2745Z" fill="#FF8A00"/>
<path d="M32.9658 38.3405C34.1985 38.3405 35.1978 37.3411 35.1978 36.1083C35.1978 34.8754 34.1985 33.876 32.9658 33.876C31.7331 33.876 30.7338 34.8754 30.7338 36.1083C30.7338 37.3411 31.7331 38.3405 32.9658 38.3405Z" fill="#FF8A00"/>
<path d="M26.8246 16.7134C26.8246 22.7936 22.1 28.1354 16.1422 27.7185C10.6013 27.3276 6.14594 23.0802 5.45984 16.7134C4.80847 10.6767 10.5057 5.76921 16.1422 5.70841C21.7787 5.64761 26.8246 12.5095 26.8246 16.7134Z" fill="white"/>
</svg>
