<svg width="25" height="24" viewBox="0 0 25 24" fill="none" xmlns="http://www.w3.org/2000/svg">
<path fill-rule="evenodd" clip-rule="evenodd" d="M1.2213 5.83513C0.906783 5.71867 0.579944 5.62704 0.243123 5.56258C0.218394 5.55787 0.193611 5.55329 0.168773 5.54884C-0.0562576 5.50862 -0.0562576 5.1853 0.168773 5.14508C0.193611 5.14064 0.218394 5.13605 0.243123 5.13134C0.579944 5.06688 0.906783 4.97526 1.2213 4.85879C1.40952 4.78909 1.59334 4.71052 1.77224 4.62351C3.01114 4.02114 4.01447 3.01614 4.61587 1.77518C4.7027 1.59598 4.78118 1.41187 4.85073 1.22333C4.967 0.908289 5.05847 0.580907 5.12283 0.243527C5.12753 0.218757 5.13211 0.193933 5.13655 0.169053C5.1767 -0.056351 5.49948 -0.056351 5.53963 0.169053C5.54408 0.193933 5.54865 0.218757 5.55336 0.243527C5.61771 0.580907 5.70918 0.908289 5.82545 1.22333C5.89504 1.41187 5.97348 1.59598 6.06034 1.77518C6.66172 3.01614 7.66505 4.02114 8.90396 4.62351C9.08286 4.71052 9.26667 4.78909 9.45488 4.85879C9.76941 4.97526 10.0962 5.06688 10.4331 5.13134C10.4578 5.13605 10.4826 5.14064 10.5074 5.14508C10.7325 5.1853 10.7325 5.50862 10.5074 5.54884C10.4826 5.55329 10.4578 5.55787 10.4331 5.56258C10.0962 5.62704 9.76941 5.71867 9.45488 5.83513C9.26667 5.90483 9.08286 5.98341 8.90396 6.07041C7.66505 6.67278 6.66172 7.67778 6.06034 8.91876C5.97348 9.09795 5.89504 9.28206 5.82545 9.47058C5.70918 9.78564 5.61771 10.113 5.55336 10.4504C5.54865 10.4751 5.54408 10.5 5.53963 10.5249C5.49948 10.7503 5.1767 10.7503 5.13655 10.5249C5.13211 10.5 5.12753 10.4751 5.12283 10.4504C5.05847 10.113 4.967 9.78564 4.85073 9.47058C4.78118 9.28206 4.7027 9.09795 4.61587 8.91876C4.01447 7.67778 3.01114 6.67278 1.77224 6.07041C1.59334 5.98341 1.40953 5.90483 1.2213 5.83513ZM8.74075 13.8447C8.52077 13.7853 8.29775 13.7332 8.07191 13.6887C8.0366 13.6817 8.00126 13.6749 7.96585 13.6683L7.95511 13.6663L7.94059 13.6637C7.91824 13.6596 7.89371 13.6552 7.84464 13.6464L7.8275 13.6434C7.46762 13.5751 7.46762 13.059 7.8275 12.9907L7.84464 12.9877C7.89371 12.9789 7.91824 12.9745 7.94059 12.9704L7.95511 12.9678L7.96585 12.9658C8.00126 12.9592 8.0366 12.9524 8.07187 12.9454C8.29772 12.9009 8.52077 12.8488 8.74075 12.7894C8.92863 12.7387 9.11429 12.6826 9.29757 12.6215C12.2627 11.6314 14.5959 9.29428 15.5844 6.32423C15.6454 6.14065 15.7014 5.95468 15.752 5.76645C15.8113 5.54615 15.8633 5.32272 15.9078 5.0965C15.9147 5.06117 15.9215 5.02577 15.9281 4.9903L15.9301 4.97954L15.9327 4.96499C15.9368 4.94288 15.9411 4.9186 15.9497 4.87055L15.95 4.86889L15.953 4.85172C16.0211 4.49124 16.5365 4.49124 16.6046 4.85172L16.6076 4.86889C16.6164 4.91804 16.6208 4.94261 16.6249 4.96499L16.6275 4.97954L16.6295 4.9903C16.6361 5.02577 16.6429 5.06117 16.6498 5.0965C16.6943 5.32275 16.7463 5.54615 16.8056 5.76645C16.8562 5.95468 16.9122 6.14065 16.9732 6.32423C17.9616 9.29428 20.2949 11.6314 23.26 12.6215C23.4433 12.6826 23.629 12.7387 23.8169 12.7894C24.0368 12.8488 24.2599 12.9009 24.4857 12.9454C24.521 12.9524 24.5563 12.9592 24.5917 12.9658L24.6025 12.9678L24.617 12.9704C24.6393 12.9745 24.6639 12.9789 24.7129 12.9877L24.7301 12.9907C25.09 13.059 25.09 13.5751 24.7301 13.6434L24.7129 13.6464L24.661 13.6557L24.617 13.6637L24.6025 13.6663L24.5917 13.6683C24.5563 13.6749 24.521 13.6817 24.4857 13.6887C24.2599 13.7332 24.0368 13.7853 23.8169 13.8447C23.629 13.8954 23.4433 13.9515 23.26 14.0126C20.2949 15.0027 17.9616 17.3398 16.9732 20.3099C16.9122 20.4935 16.8562 20.6794 16.8056 20.8676C16.7463 21.088 16.6943 21.3114 16.6498 21.5376C16.6429 21.5729 16.6361 21.6083 16.6295 21.6438L16.6275 21.6546L16.6249 21.6691L16.6189 21.7018L16.608 21.7633L16.6046 21.7824C16.5365 22.1429 16.0211 22.1429 15.953 21.7824L15.95 21.7652C15.9412 21.7162 15.9368 21.6915 15.9327 21.6691L15.9301 21.6546L15.9281 21.6438C15.9215 21.6083 15.9147 21.5729 15.9078 21.5376C15.8633 21.3113 15.8113 21.088 15.752 20.8676C15.7014 20.6794 15.6454 20.4935 15.5844 20.3099C14.5959 17.3398 12.2627 15.0027 9.29757 14.0126C9.11429 13.9515 8.92863 13.8954 8.74075 13.8447ZM3.77791 20.7592C4.15616 20.8315 4.51446 20.9582 4.84453 21.1308C4.99137 21.2075 5.13261 21.2934 5.26751 21.3876C5.64344 21.6501 5.9703 21.9776 6.23241 22.3541C6.32647 22.4893 6.4122 22.6307 6.48882 22.7778C6.66115 23.1084 6.78757 23.4673 6.85981 23.8462C6.86279 23.8618 6.86571 23.8775 6.8685 23.8932C6.89386 24.0356 7.09772 24.0356 7.12308 23.8932C7.12587 23.8775 7.12875 23.8618 7.13174 23.8462C7.20401 23.4673 7.33043 23.1084 7.50273 22.7778C7.57938 22.6307 7.66511 22.4893 7.75917 22.3541C8.02125 21.9776 8.34814 21.6501 8.72407 21.3876C8.85898 21.2934 9.00021 21.2075 9.14701 21.1308C9.47713 20.9582 9.83542 20.8315 10.2137 20.7592C10.2293 20.7562 10.2449 20.7533 10.2606 20.7505C10.4027 20.7251 10.4027 20.5208 10.2606 20.4955C10.2449 20.4927 10.2293 20.4898 10.2137 20.4868C9.83542 20.4144 9.47713 20.2878 9.14701 20.1152C9.00021 20.0384 8.85898 19.9525 8.72407 19.8583C8.34814 19.5958 8.02125 19.2683 7.75917 18.8918C7.66511 18.7567 7.57938 18.6152 7.50273 18.4682C7.33043 18.1375 7.20401 17.7786 7.13174 17.3997C7.12875 17.3841 7.12587 17.3684 7.12308 17.3527C7.09772 17.2103 6.89386 17.2103 6.8685 17.3527C6.86571 17.3684 6.86279 17.3841 6.85981 17.3997C6.78757 17.7786 6.66115 18.1375 6.48882 18.4682C6.4122 18.6152 6.32647 18.7567 6.23241 18.8918C5.9703 19.2683 5.64344 19.5958 5.26751 19.8583C5.13261 19.9525 4.99137 20.0384 4.84453 20.1152C4.51446 20.2878 4.15616 20.4144 3.77791 20.4868C3.7623 20.4898 3.74665 20.4927 3.73094 20.4955C3.58884 20.5208 3.58884 20.7251 3.73094 20.7505C3.74665 20.7533 3.7623 20.7562 3.77791 20.7592Z" fill="#FF8A00"/>
</svg>
