<svg width="43" height="43" viewBox="0 0 43 43" fill="none" xmlns="http://www.w3.org/2000/svg">
<rect width="43" height="43" rx="5" fill="#FF8A00"/>
<path d="M21.5 9C20.7536 9 20.1486 9.60503 20.1486 10.3514V20.1487H10.3514C9.60503 20.1487 9 20.7537 9 21.5C9 22.2464 9.60503 22.8514 10.3514 22.8514H20.1486V32.6486C20.1486 33.395 20.7536 34 21.5 34C22.2464 34 22.8514 33.395 22.8514 32.6486V22.8514H32.6486C33.395 22.8514 34 22.2464 34 21.5C34 20.7537 33.395 20.1487 32.6486 20.1487H22.8514V10.3514C22.8514 9.60503 22.2464 9 21.5 9Z" fill="#FEFEFE"/>
</svg>
